# xmcd CD database file
#
# Track frame offsets:
#	150
#	23661
#	45798
#	66578
#	81650
#	95233
#	114619
#	134214
#	153156
#	173133
#	193375
#	215345
#	238672
#	261009
#	282596
#	303967
#	329684
#
# Disc length: 4677 seconds
#
# Revision: 0
# Processed by: cddbd v1.5.2PL0 Copyright (c) Steve Scherf et al.
# Submitted via: CDex 1.70beta2
#
DISCID=07124311
DTITLE=Steve Berry - The Amber Room Disc 6
DYEAR=2003
DGENRE=Audio Book
TTITLE0=The Amber Room Disc 6-01
TTITLE1=The Amber Room Disc 6-02
TTITLE2=The Amber Room Disc 6-03
TTITLE3=The Amber Room Disc 6-04
TTITLE4=The Amber Room Disc 6-05
TTITLE5=The Amber Room Disc 6-06
TTITLE6=The Amber Room Disc 6-07
TTITLE7=The Amber Room Disc 6-08
TTITLE8=The Amber Room Disc 6-09
TTITLE9=The Amber Room Disc 6-10
TTITLE10=The Amber Room Disc 6-11
TTITLE11=The Amber Room Disc 6-12
TTITLE12=The Amber Room Disc 6-13
TTITLE13=The Amber Room Disc 6-14
TTITLE14=The Amber Room Disc 6-15
TTITLE15=The Amber Room Disc 6-16
TTITLE16=The Amber Room Disc 6-17
EXTD=YEAR: 2003
EXTT0=
EXTT1=
EXTT2=
EXTT3=
EXTT4=
EXTT5=
EXTT6=
EXTT7=
EXTT8=
EXTT9=
EXTT10=
EXTT11=
EXTT12=
EXTT13=
EXTT14=
EXTT15=
EXTT16=
PLAYORDER=
